# xmcd CD database file
#
# Track frame offsets:
#	150
#	10844
#	22594
#	33634
#	43721
#	54303
#	64878
#	78562
#	91459
#	103238
#	113377
#	132656
#	147250
#	160961
#	172199
#	183015
#	194307
#	204861
#	216866
#
# Disc length: 3052 seconds
#
# Revision: 1
# Processed by: cddbd v1.5.2PL0 Copyright (c) Steve Scherf et al.
# Submitted via: jetAudio 7
#
DISCID=040bea13
DTITLE=Various Artist - Legends of Country Vol. 2
DYEAR=2006
DGENRE=country
TTITLE0=Buck Owens - Act Naturally
TTITLE1=George Jones - She Thinks I Still Care
TTITLE2=Roger Miller - King of the Road
TTITLE3=George Hamilton IV - Abilene
TTITLE4=The Statler Brothers - Flowers on the Wall
TTITLE5=Connie Smith - Once a Day
TTITLE6=Jimmy Dean - Big Bad John
TTITLE7=The Browns - The Three Bells
TTITLE8=Johnny Cash - Ring of Fire
TTITLE9=Buck Owens - I've Got a Tiger By the Tale
TTITLE10=Bobbie Gentry - Ode to Billy Joe
TTITLE11=Jeannie C. Riley - Harper Valley PTA
TTITLE12=Loretta Lynn - Coal Miner's Daughter
TTITLE13=Conway Twitty - Hello Darlin'
TTITLE14=Hank Locklin - Pleas Help Me, I'm Falling
TTITLE15=Floyd Cramer - Last Date
TTITLE16=Jim Reeves - He'll Have to Go
TTITLE17=Eddy Arnold - Make the World Go Away
TTITLE18=Tammy Wynette - Stand by Your Man
EXTD=
EXTT0=
EXTT1=
EXTT2=
EXTT3=
EXTT4=
EXTT5=
EXTT6=
EXTT7=
EXTT8=
EXTT9=
EXTT10=
EXTT11=
EXTT12=
EXTT13=
EXTT14=
EXTT15=
EXTT16=
EXTT17=
EXTT18=
PLAYORDER=
